<?xml version="1.0" ?><svg id="Layer_1" style="enable-background:new 0 0 512 512;" version="1.1" viewBox="0 0 512 512" xml:space="preserve" xmlns="http://www.w3.org/2000/svg" xmlns:xlink="http://www.w3.org/1999/xlink"><style type="text/css">
	.st0{fill:#F9AC82;}
	.st1{fill:#EE3544;}
	.st2{fill:#E93E6F;}
	.st3{fill:#EF517D;}
	.st4{fill:#F15C5C;}
	.st5{fill:#F8BC95;}
	.st6{fill:#1A3F6F;}
</style><g><path class="st0" d="M318.1,312.1l-66.2,155.3h0.3l-64.6-154.8c0,0-26.8-4.5-7.3-21.2l0,0c0,0,67.7,6.5,140.7,0l0,0   C320.9,291.5,343.8,304.3,318.1,312.1z"/><path class="st1" d="M289.7,105.7c0,0,17.9-13.6,17.9-25.3c0-14.8-12-26.7-26.7-26.7c-14.8,0-28.6,12.8-26.7,29.7   C254.2,83.4,259.9,96,289.7,105.7z"/><path class="st2" d="M320.9,291.5c-22.5,1.9-43.6,3-69.5,3c-26.1,0-48.7-1.1-71.3-3c0,0-20-35.5,11-49.1c3-1.3,6.1-2.7,9.1-4.3   c0,0-19.8-29.4-16.1-54.6c2.1-14.8,19.2-26.8,42.3-32.7c0,0-64.1-40.8,9.8-109.2c0,0,2.8,23.2,8.7,35.3   c5.2,10.7,22.5,20.8,35.2,25.9c25.8,9.6,39.8,18.5,42.3,38.9c3.7,30.1-15.3,63.5-15.3,63.5c17.1,6.9,28.7,17.2,30.5,29.4   C341.5,260.8,320.9,291.5,320.9,291.5z"/><g><path class="st3" d="M205.9,250.1c-11.6,2.1-16.9,10.6-18.2,15.3c-0.9,3.2,1,6.5,4.2,7.4c0.5,0.1,1.1,0.2,1.6,0.2    c2.6,0,5-1.7,5.8-4.4c0-0.1,1.7-5.4,8.8-6.7c3.3-0.6,5.4-3.7,4.8-7C212.3,251.7,209.1,249.5,205.9,250.1z"/><path class="st3" d="M233,82.8c1.7-2.9,0.7-6.5-2.1-8.2c-2.9-1.7-6.5-0.7-8.2,2.1c-15.8,27.1-1.7,50.3,8,58.8    c1.1,1,2.5,1.5,3.9,1.5c1.7,0,3.3-0.7,4.5-2c2.2-2.5,2-6.3-0.5-8.5C237.8,125.8,218.3,107.9,233,82.8z"/><path class="st3" d="M301.6,146.1c-0.1,3.3,2.5,6.1,5.8,6.2c0.1,0,0.1,0,0.2,0c3.2,0,5.9-2.6,6-5.8c0.3-10.1-4.8-18.9-14.8-25.5    c-7-4.5-14-6.4-14.3-6.5c-3.2-0.8-6.5,1.1-7.3,4.3c-0.8,3.2,1.1,6.5,4.3,7.3c0.1,0,5.5,1.5,10.8,4.9    C298.6,135.2,301.8,140.3,301.6,146.1z"/><path class="st3" d="M233.1,165.5c-0.3,0-7.6,0.2-15.4,3.1c-11.2,4.1-18.2,11.5-20.2,21.4c-0.6,3.2,1.4,6.3,4.5,7    c0.1,0,0.1,0,0.2,0c3.2,0.7,6.4-1.5,7.1-4.7c1.1-5.7,5.4-9.9,12.5-12.5c5.9-2.1,11.5-2.3,11.6-2.3c3.3-0.1,5.9-2.8,5.8-6.1    C239.2,168,236.4,165.4,233.1,165.5z"/><path class="st3" d="M324.6,242c-2-9.9-9-17.3-20.2-21.4c-7.8-2.8-15.1-3.1-15.4-3.1c-3.3-0.1-6.1,2.5-6.1,5.8    c-0.1,3.3,2.5,6.1,5.8,6.1c0.1,0,5.7,0.2,11.6,2.3c7.2,2.6,11.4,6.8,12.5,12.5c0.7,3.2,3.8,5.4,7.1,4.7c0.1,0,0.1,0,0.2,0    C323.3,248.2,325.3,245.1,324.6,242z"/></g><path class="st4" d="M290.8,86.8c-0.3,0-0.5,0-0.8-0.1c-3.3-0.4-5.6-3.4-5.2-6.7c0.5-3.7-3.4-5.1-4.6-5.4c-3.2-0.9-5.1-4.1-4.2-7.3   c0.8-3.2,4.2-5.1,7.4-4.3c0.6,0.2,3.9,1.1,7,3.6c4.8,3.7,7.1,9.1,6.3,15C296.4,84.6,293.8,86.8,290.8,86.8z"/><path class="st5" d="M249.3,424.1c-2.4,0-4.6-1.4-5.5-3.7l-36.2-87c-1.3-3.1,0.2-6.6,3.2-7.8c3.1-1.3,6.6,0.2,7.8,3.2l36.2,87   c1.3,3.1-0.2,6.6-3.2,7.8C250.9,423.9,250.1,424.1,249.3,424.1z"/><path class="st6" d="M330.4,288.1c6.1-10.8,17-33.8,13.9-54.9c-1.4-9.5-7.8-18.5-18.6-25.9c-3-2-6.2-3.9-9.6-5.6   c5.4-11.3,15.9-37,13-61.3c-2.1-17-11.3-27.2-26.7-35.3c7-6.1,11.2-15,11.2-24.6c0-8.9-3.5-16.9-9.3-22.8c2-3.4,6.1-8.3,13.7-10.3   c3.2-0.8,5.1-4.1,4.3-7.3c-0.8-3.2-4.1-5.1-7.3-4.3c-10.9,2.8-17.2,9.7-20.5,15c-4.2-1.9-8.8-3-13.7-3c-9.3,0-18.3,4.1-24.6,11.1   c-3,3.4-5.3,7.3-6.7,11.4c-4.4-11.6-6.6-29.7-6.6-29.9c-0.3-2.2-1.8-4.1-3.9-4.9c-2.1-0.8-4.5-0.3-6.1,1.2   c-26.8,24.9-39.4,49.3-37.3,72.7c1.6,18,11.6,31,19.3,38.5c-6.6,2.5-12.7,5.6-18,9.2c-10.4,7.2-16.6,15.8-18,25   c-3,20.5,7.7,42.8,13.6,53.1c-1,0.4-2,0.8-3,1.2c-9.8,4.3-16.2,10.9-19.2,19.8c-4,12.1-0.2,25.1,2.8,32.2c-2.7,3.2-7.5,10-5.5,17.3   c1.5,5.4,6.2,9.3,13.8,11.6l64.4,154.2c0.1,0.9,0.4,1.8,1,2.6c1.1,1.7,3,2.7,5,2.7h0.3c2,0,3.9-1,5-2.7c0.5-0.8,0.9-1.7,1-2.6   l37.5-89.9c0,0,0,0,0,0l26.8-64.3c7.7-2.3,12.3-6.2,13.8-11.6C338.3,298.2,333.1,291.2,330.4,288.1   C330.4,288.1,330.4,288.1,330.4,288.1z M265.2,66.9c4-4.5,9.9-7.1,15.7-7.1c11.4,0,20.7,9.3,20.7,20.7c0,8.1-4.7,15.4-11.9,18.8   c-2.1-0.9-4.3-1.7-6.6-2.6c-7.8-3.1-16.5-7.9-23-13c0-0.3,0-0.6,0-0.9C259.4,76.9,261.2,71.2,265.2,66.9z M181.7,260   c1.9-5.5,6-9.6,12.6-12.5c24.5-10.7,63,4.3,74.2,9.2c0.9,0.4,1.3,0.5,1.8,0.7c3.2,0.8,6.5-1.1,7.3-4.4c0.8-3-0.9-6-3.7-7.1   c-0.1-0.1-0.3-0.1-0.5-0.2c-13.1-5.7-42.7-16.7-68.5-13.3c-4.1-6.7-16.7-29.3-13.9-48.5c1.1-7.3,7.6-13.2,12.9-16.8   c6.9-4.7,15.5-8.4,24.8-10.9c0.1,0,0.2,0,0.3-0.1c16.2-4.3,34.8-5,50.6-1.4c3.2,0.7,6.4-1.3,7.2-4.5c0.7-3.2-1.3-6.4-4.5-7.2   c-17-3.9-36.3-3.4-53.7,0.8c-5.3-4.1-19.2-16.6-20.8-35.5c-1.5-17.1,7-35.4,25.3-54.7c1.5,8,3.9,18.3,7.4,25.5   c6.1,12.4,24.4,23.3,38.3,28.8c0,0,0,0,0.1,0c0,0,0,0,0.1,0c27.5,10.3,36.5,18.2,38.5,34c2.6,21.4-7.4,45.2-12.1,55.1   c-20.9-7.5-46.3-9.4-68-4.5c-3.2,0.7-5.3,4-4.5,7.2s4,5.3,7.2,4.5c20.6-4.7,45.5-2.3,64.8,5.4c0.9,0.3,1.2,0.5,2.2,0.9   c4.4,1.9,8.6,4.1,12.2,6.6c5.6,3.8,12.4,10,13.6,17.7c2.9,20-10.2,43.6-14.5,50.7c-21,1.6-43.1,2.4-65.8,2.4   c-23.3,0-45.9-0.9-67.3-2.6C182.6,280.5,178.5,269.4,181.7,260z M273.2,245.7c0.1,0,0.3,0.1,0.6,0.2   C273.6,245.8,273.4,245.7,273.2,245.7z M272,407c-6.2,0.8-12.7,1.2-19.3,1.2c-7.2,0-14.1-0.5-20.8-1.4l-8.7-20.8   c9.6,0.7,19.5,1.1,29.6,1.1c9.5,0,18.9-0.3,28-1L272,407z M285.8,373.7c-10.6,0.9-21.8,1.4-33.1,1.4c-11.9,0-23.6-0.5-34.8-1.5   l-8.7-20.9c13.8,0.8,28.2,1.2,42.9,1.2c14.5,0,28.8-0.4,42.5-1.2L285.8,373.7z M252,455l-14.8-35.5c5.1,0.5,10.3,0.7,15.5,0.7   c4.7,0,9.4-0.2,14-0.6L252,455z M299.7,340.3c-15.3,1-31.3,1.6-47.7,1.6c-16.5,0-32.7-0.5-48-1.6l-8.9-21.3   c18.3,1.2,37.3,1.8,56.7,1.8c19.4,0,38.5-0.6,56.8-1.8L299.7,340.3z M324.6,302.5c-0.2,0.8-2.1,2.6-7.6,3.8   c-20.8,1.6-42.7,2.4-65.1,2.4c-22.4,0-44.3-0.8-65.1-2.4c-5.5-1.3-7.4-3-7.6-3.8c-0.3-1.1,0.8-3.4,2.2-5.3   c22.5,1.8,46.3,2.8,70.8,2.8c24.3,0,47.9-0.9,70.3-2.8C323.8,299.2,324.9,301.4,324.6,302.5z"/></g></svg>